{
    "asset" : {
        "generator" : "Khronos glTF Blender I/O v0.9.36",
        "version" : "2.0"
    },
    "scene" : 0,
    "scenes" : [
        {
            "extras" : {
                "blenderkitUI" : {
                    "assetbar_on" : 0,
                    "turn_off" : 0
                },
                "uuid" : "81ff96b5-be6f-4b10-964c-120fef0ab8b5"
            },
            "name" : "Scene",
            "nodes" : [
                1
            ]
        }
    ],
    "nodes" : [
        {
            "extras" : {},
            "mesh" : 0,
            "name" : "Cube.243",
            "translation" : [
                7.62939453125e-06,
                0.25414085388183594,
                0.08084215968847275
            ]
        },
        {
            "children" : [
                0
            ],
            "extras" : {},
            "mesh" : 1,
            "name" : "character_scrapbot_headHat"
        }
    ],
    "materials" : [
        {
            "name" : "Metal",
            "pbrMetallicRoughness" : {
                "baseColorFactor" : [
                    0.40126433968544006,
                    0.47849249839782715,
                    0.5173344612121582,
                    1
                ],
                "metallicFactor" : 0.20000000298023224,
                "roughnessFactor" : 0.30000001192092896
            }
        },
        {
            "name" : "Black",
            "pbrMetallicRoughness" : {
                "baseColorFactor" : [
                    0.019794002175331116,
                    0.03207586705684662,
                    0.037408243864774704,
                    1
                ],
                "metallicFactor" : 0,
                "roughnessFactor" : 0.5
            }
        },
        {
            "name" : "Copper",
            "pbrMetallicRoughness" : {
                "baseColorFactor" : [
                    0.6307672262191772,
                    0.2898349463939667,
                    0.1054619625210762,
                    1
                ],
                "metallicFactor" : 0.699999988079071,
                "roughnessFactor" : 0.2340908944606781
            }
        },
        {
            "doubleSided" : true,
            "emissiveFactor" : [
                1,
                0.5112844109535217,
                0.029259659349918365
            ],
            "name" : "YellowGlow",
            "pbrMetallicRoughness" : {}
        },
        {
            "name" : "GreyDark",
            "pbrMetallicRoughness" : {
                "baseColorFactor" : [
                    0.10092172026634216,
                    0.11823292821645737,
                    0.12790560722351074,
                    1
                ],
                "metallicFactor" : 0,
                "roughnessFactor" : 0.5
            }
        },
        {
            "name" : "Robot",
            "pbrMetallicRoughness" : {
                "baseColorFactor" : [
                    0.22480688989162445,
                    0.2670499384403229,
                    0.2882625460624695,
                    1
                ],
                "metallicFactor" : 0.20000000298023224,
                "roughnessFactor" : 0.30000001192092896
            }
        },
        {
            "name" : "Beige",
            "pbrMetallicRoughness" : {
                "baseColorFactor" : [
                    0.7029160857200623,
                    0.4253237545490265,
                    0.20689357817173004,
                    1
                ],
                "metallicFactor" : 0,
                "roughnessFactor" : 0.5
            }
        }
    ],
    "meshes" : [
        {
            "name" : "Cube.510",
            "primitives" : [
                {
                    "attributes" : {
                        "POSITION" : 0,
                        "NORMAL" : 1,
                        "TEXCOORD_0" : 2
                    },
                    "indices" : 3,
                    "material" : 0
                }
            ]
        },
        {
            "name" : "Cube.490",
            "primitives" : [
                {
                    "attributes" : {
                        "POSITION" : 4,
                        "NORMAL" : 5,
                        "TEXCOORD_0" : 6
                    },
                    "indices" : 7,
                    "material" : 1
                },
                {
                    "attributes" : {
                        "POSITION" : 8,
                        "NORMAL" : 9,
                        "TEXCOORD_0" : 10
                    },
                    "indices" : 11,
                    "material" : 2
                },
                {
                    "attributes" : {
                        "POSITION" : 12,
                        "NORMAL" : 13,
                        "TEXCOORD_0" : 14
                    },
                    "indices" : 15,
                    "material" : 3
                },
                {
                    "attributes" : {
                        "POSITION" : 16,
                        "NORMAL" : 17,
                        "TEXCOORD_0" : 18
                    },
                    "indices" : 19,
                    "material" : 0
                },
                {
                    "attributes" : {
                        "POSITION" : 20,
                        "NORMAL" : 21,
                        "TEXCOORD_0" : 22
                    },
                    "indices" : 23,
                    "material" : 4
                },
                {
                    "attributes" : {
                        "POSITION" : 24,
                        "NORMAL" : 25,
                        "TEXCOORD_0" : 26
                    },
                    "indices" : 27,
                    "material" : 5
                },
                {
                    "attributes" : {
                        "POSITION" : 28,
                        "NORMAL" : 29,
                        "TEXCOORD_0" : 30
                    },
                    "indices" : 31,
                    "material" : 6
                }
            ]
        }
    ],
    "accessors" : [
        {
            "bufferView" : 0,
            "componentType" : 5126,
            "count" : 122,
            "max" : [
                0.22798728942871094,
                0.06917210668325424,
                0.34673449397087097
            ],
            "min" : [
                -0.2279806137084961,
                -0.14136122167110443,
                0.00477011501789093
            ],
            "type" : "VEC3"
        },
        {
            "bufferView" : 1,
            "componentType" : 5126,
            "count" : 122,
            "type" : "VEC3"
        },
        {
            "bufferView" : 2,
            "componentType" : 5126,
            "count" : 122,
            "type" : "VEC2"
        },
        {
            "bufferView" : 3,
            "componentType" : 5123,
            "count" : 333,
            "type" : "SCALAR"
        },
        {
            "bufferView" : 4,
            "componentType" : 5126,
            "count" : 480,
            "max" : [
                0.36664465069770813,
                1.1557037830352783,
                0.39307835698127747
            ],
            "min" : [
                -0.46985718607902527,
                0.11550448834896088,
                -0.3906576335430145
            ],
            "type" : "VEC3"
        },
        {
            "bufferView" : 5,
            "componentType" : 5126,
            "count" : 480,
            "type" : "VEC3"
        },
        {
            "bufferView" : 6,
            "componentType" : 5126,
            "count" : 480,
            "type" : "VEC2"
        },
        {
            "bufferView" : 7,
            "componentType" : 5123,
            "count" : 1032,
            "type" : "SCALAR"
        },
        {
            "bufferView" : 8,
            "componentType" : 5126,
            "count" : 550,
            "max" : [
                0.4970589578151703,
                0.7021792531013489,
                0.49999967217445374
            ],
            "min" : [
                -0.4970589578151703,
                0.27348142862319946,
                -0.4970589280128479
            ],
            "type" : "VEC3"
        },
        {
            "bufferView" : 9,
            "componentType" : 5126,
            "count" : 550,
            "type" : "VEC3"
        },
        {
            "bufferView" : 10,
            "componentType" : 5126,
            "count" : 550,
            "type" : "VEC2"
        },
        {
            "bufferView" : 11,
            "componentType" : 5123,
            "count" : 1482,
            "type" : "SCALAR"
        },
        {
            "bufferView" : 12,
            "componentType" : 5126,
            "count" : 97,
            "max" : [
                0.3193683922290802,
                0.8567807078361511,
                0.44633063673973083
            ],
            "min" : [
                -0.44325748085975647,
                0.15432849526405334,
                -0.2116156667470932
            ],
            "type" : "VEC3"
        },
        {
            "bufferView" : 13,
            "componentType" : 5126,
            "count" : 97,
            "type" : "VEC3"
        },
        {
            "bufferView" : 14,
            "componentType" : 5126,
            "count" : 97,
            "type" : "VEC2"
        },
        {
            "bufferView" : 15,
            "componentType" : 5123,
            "count" : 198,
            "type" : "SCALAR"
        },
        {
            "bufferView" : 16,
            "componentType" : 5126,
            "count" : 333,
            "max" : [
                0.45762526988983154,
                0.913567066192627,
                0.3791869878768921
            ],
            "min" : [
                -0.36088675260543823,
                0.04055111110210419,
                -0.2928232252597809
            ],
            "type" : "VEC3"
        },
        {
            "bufferView" : 17,
            "componentType" : 5126,
            "count" : 333,
            "type" : "VEC3"
        },
        {
            "bufferView" : 18,
            "componentType" : 5126,
            "count" : 333,
            "type" : "VEC2"
        },
        {
            "bufferView" : 19,
            "componentType" : 5123,
            "count" : 810,
            "type" : "SCALAR"
        },
        {
            "bufferView" : 20,
            "componentType" : 5126,
            "count" : 548,
            "max" : [
                0.45762526988983154,
                1.2752063274383545,
                0.37247127294540405
            ],
            "min" : [
                -0.45762529969215393,
                -0.07525873184204102,
                -0.3859299123287201
            ],
            "type" : "VEC3"
        },
        {
            "bufferView" : 21,
            "componentType" : 5126,
            "count" : 548,
            "type" : "VEC3"
        },
        {
            "bufferView" : 22,
            "componentType" : 5126,
            "count" : 548,
            "type" : "VEC2"
        },
        {
            "bufferView" : 23,
            "componentType" : 5123,
            "count" : 1236,
            "type" : "SCALAR"
        },
        {
            "bufferView" : 24,
            "componentType" : 5126,
            "count" : 716,
            "max" : [
                0.8362442255020142,
                0.8676609992980957,
                0.3744302988052368
            ],
            "min" : [
                -0.5170878171920776,
                0.05797075852751732,
                -0.4801221787929535
            ],
            "type" : "VEC3"
        },
        {
            "bufferView" : 25,
            "componentType" : 5126,
            "count" : 716,
            "type" : "VEC3"
        },
        {
            "bufferView" : 26,
            "componentType" : 5126,
            "count" : 716,
            "type" : "VEC2"
        },
        {
            "bufferView" : 27,
            "componentType" : 5123,
            "count" : 1908,
            "type" : "SCALAR"
        },
        {
            "bufferView" : 28,
            "componentType" : 5126,
            "count" : 687,
            "max" : [
                0.8959134817123413,
                1.0186070203781128,
                0.8857254981994629
            ],
            "min" : [
                -0.8811704516410828,
                0.36076492071151733,
                -0.8751920461654663
            ],
            "type" : "VEC3"
        },
        {
            "bufferView" : 29,
            "componentType" : 5126,
            "count" : 687,
            "type" : "VEC3"
        },
        {
            "bufferView" : 30,
            "componentType" : 5126,
            "count" : 687,
            "type" : "VEC2"
        },
        {
            "bufferView" : 31,
            "componentType" : 5123,
            "count" : 1272,
            "type" : "SCALAR"
        }
    ],
    "bufferViews" : [
        {
            "buffer" : 0,
            "byteLength" : 1464,
            "byteOffset" : 0
        },
        {
            "buffer" : 0,
            "byteLength" : 1464,
            "byteOffset" : 1464
        },
        {
            "buffer" : 0,
            "byteLength" : 976,
            "byteOffset" : 2928
        },
        {
            "buffer" : 0,
            "byteLength" : 666,
            "byteOffset" : 3904
        },
        {
            "buffer" : 0,
            "byteLength" : 5760,
            "byteOffset" : 4572
        },
        {
            "buffer" : 0,
            "byteLength" : 5760,
            "byteOffset" : 10332
        },
        {
            "buffer" : 0,
            "byteLength" : 3840,
            "byteOffset" : 16092
        },
        {
            "buffer" : 0,
            "byteLength" : 2064,
            "byteOffset" : 19932
        },
        {
            "buffer" : 0,
            "byteLength" : 6600,
            "byteOffset" : 21996
        },
        {
            "buffer" : 0,
            "byteLength" : 6600,
            "byteOffset" : 28596
        },
        {
            "buffer" : 0,
            "byteLength" : 4400,
            "byteOffset" : 35196
        },
        {
            "buffer" : 0,
            "byteLength" : 2964,
            "byteOffset" : 39596
        },
        {
            "buffer" : 0,
            "byteLength" : 1164,
            "byteOffset" : 42560
        },
        {
            "buffer" : 0,
            "byteLength" : 1164,
            "byteOffset" : 43724
        },
        {
            "buffer" : 0,
            "byteLength" : 776,
            "byteOffset" : 44888
        },
        {
            "buffer" : 0,
            "byteLength" : 396,
            "byteOffset" : 45664
        },
        {
            "buffer" : 0,
            "byteLength" : 3996,
            "byteOffset" : 46060
        },
        {
            "buffer" : 0,
            "byteLength" : 3996,
            "byteOffset" : 50056
        },
        {
            "buffer" : 0,
            "byteLength" : 2664,
            "byteOffset" : 54052
        },
        {
            "buffer" : 0,
            "byteLength" : 1620,
            "byteOffset" : 56716
        },
        {
            "buffer" : 0,
            "byteLength" : 6576,
            "byteOffset" : 58336
        },
        {
            "buffer" : 0,
            "byteLength" : 6576,
            "byteOffset" : 64912
        },
        {
            "buffer" : 0,
            "byteLength" : 4384,
            "byteOffset" : 71488
        },
        {
            "buffer" : 0,
            "byteLength" : 2472,
            "byteOffset" : 75872
        },
        {
            "buffer" : 0,
            "byteLength" : 8592,
            "byteOffset" : 78344
        },
        {
            "buffer" : 0,
            "byteLength" : 8592,
            "byteOffset" : 86936
        },
        {
            "buffer" : 0,
            "byteLength" : 5728,
            "byteOffset" : 95528
        },
        {
            "buffer" : 0,
            "byteLength" : 3816,
            "byteOffset" : 101256
        },
        {
            "buffer" : 0,
            "byteLength" : 8244,
            "byteOffset" : 105072
        },
        {
            "buffer" : 0,
            "byteLength" : 8244,
            "byteOffset" : 113316
        },
        {
            "buffer" : 0,
            "byteLength" : 5496,
            "byteOffset" : 121560
        },
        {
            "buffer" : 0,
            "byteLength" : 2544,
            "byteOffset" : 127056
        }
    ],
    "buffers" : [
        {
            "byteLength" : 129600,
            "uri" : "data:application/octet-stream;base64,"
        }
    ]
}
